<?xml version="1.0" encoding="UTF-8" standalone="no" ?>
<!DOCTYPE svg PUBLIC "-//W3C//DTD SVG 1.1//EN" "http://www.w3.org/Graphics/SVG/1.1/DTD/svg11.dtd">
<svg xmlns="http://www.w3.org/2000/svg" xmlns:xlink="http://www.w3.org/1999/xlink" version="1.1" width="1080" height="1080" viewBox="0 0 1080 1080" xml:space="preserve">
<desc>Created with Fabric.js 5.2.4</desc>
<defs>
</defs>
<g transform="matrix(1 0 0 1 540 540)" id="5f6df490-e419-46fb-bed2-f029bae5cbc6"  >
<rect style="stroke: none; stroke-width: 1; stroke-dasharray: none; stroke-linecap: butt; stroke-dashoffset: 0; stroke-linejoin: miter; stroke-miterlimit: 4; fill: rgb(255,255,255); fill-rule: nonzero; opacity: 1; visibility: hidden;" vector-effect="non-scaling-stroke"  x="-540" y="-540" rx="0" ry="0" width="1080" height="1080" />
</g>
<g transform="matrix(1 0 0 1 540 540)" id="784f58f0-66da-4676-be54-cd05fe71b97a"  >
</g>
<g transform="matrix(1 0 0 1 540 540)" id="2e0ef77d-8d9e-4c9a-8c74-d4996fa15c1f"  >
<linearGradient id="SVGID_a_3" gradientUnits="objectBoundingBox" gradientTransform="matrix(1 0 0 1 0 0)"  x1="0.9373" y1="0.1155" x2="0.2077" y2="0.845">
<stop offset="0%" style="stop-color:rgb(47,234,252);stop-opacity: 1"/>
<stop offset="100%" style="stop-color:rgb(47,234,252);stop-opacity: 0"/>
</linearGradient>
<path style="stroke: rgb(0,0,0); stroke-width: 0; stroke-dasharray: none; stroke-linecap: butt; stroke-dashoffset: 0; stroke-linejoin: miter; stroke-miterlimit: 4; fill: url(#SVGID_a_3); fill-rule: nonzero; opacity: 1;" vector-effect="non-scaling-stroke"  transform=" translate(-116.91, -69.78)" d="M 177.77 24.36 C 177.81300000000002 24.83 177.46800000000002 25.027 177.554 25.526 C 176.911 24.886 176.808 25.059 176.132 25.588 C 175.877 24.278000000000002 177.148 25.238 177.77 24.361 z M 178.167 25.369 C 178.825 25.427 179.569 23.317999999999998 180.484 24.839 C 179.434 25.419999999999998 179.00400000000002 25.624 178.972 26.695999999999998 C 178.622 26.459 178.363 25.994999999999997 177.709 26.512999999999998 C 177.837 26.031 178.175 25.703 178.095 25.072999999999997 C 178.365 25.034999999999997 178.293 25.323999999999998 178.167 25.368999999999996 z M 170.756 29.269 C 172.125 30.595999999999997 169.638 29.939999999999998 169.004 30.602999999999998 C 169.023 30.275 169.414 30.185999999999996 169.07399999999998 29.631999999999998 C 169.683 29.706 171.07399999999998 30.397 170.75599999999997 29.269 z M 104.55 95.896 C 105.719 93.132 108.54599999999999 92.883 110.422 91.09 C 110.088 92.738 105.942 94.004 104.55 95.896 z M 212.375 7.906000000000006 C 212.713 7.897000000000006 213.031 7.913000000000006 213.022 8.480000000000006 C 214.62 8.335000000000006 214.879 6.945000000000006 216.349 6.715000000000006 C 216.146 5.965000000000006 215.861 5.343000000000006 215.28099999999998 5.175000000000006 C 214.93299999999996 6.151000000000006 214.271 7.637000000000006 213.24899999999997 6.454000000000006 C 213.30899999999997 7.062000000000006 213.24499999999998 7.564000000000006 212.91599999999997 7.8280000000000065 C 212.85899999999998 7.504000000000007 212.37399999999997 7.488000000000007 212.37499999999997 7.906000000000007 z M 216.21 7.006000000000006 C 217.43200000000002 6.995000000000005 216.702 4.541000000000006 216.04500000000002 5.627000000000006 C 215.96400000000003 5.208000000000006 215.865 4.818000000000006 215.39300000000003 5.009000000000006 C 215.44300000000004 6.032000000000005 216.16600000000003 5.984000000000005 216.21000000000004 7.006000000000006 z M 203.09300000000002 10.449000000000005 C 202.45100000000002 10.119000000000005 200.73800000000003 10.519000000000005 200.978 11.589000000000006 C 201.418 11.007000000000005 203.228 11.484000000000005 203.09300000000002 10.449000000000005 z M 199.52200000000002 12.611000000000004 C 199.216 13.722000000000005 197.60200000000003 13.813000000000004 196.805 14.564000000000004 C 195.984 13.539000000000003 198.36700000000002 12.899000000000004 199.52200000000002 12.611000000000004 z M 203.479 14.004000000000005 C 203.793 12.335000000000004 205.393 11.792000000000005 206.852 11.295000000000005 C 208.318 10.831000000000005 209.641 10.375000000000005 209.401 8.744000000000005 C 208.228 9.552000000000005 208.42700000000002 9.424000000000005 207.15 9.097000000000005 C 207.711 11.191000000000004 206.21 9.674000000000005 206.056 11.035000000000005 C 205.691 11.102000000000006 205.693 10.485000000000005 205.37900000000002 10.460000000000006 C 204.57200000000003 11.150000000000006 204.84300000000002 11.920000000000005 203.293 11.566000000000006 C 203.296 13.279000000000007 201.453 12.259000000000006 200.531 13.513000000000005 L 200.671 14.193000000000005 C 200.843 14.177000000000005 201.007 14.179000000000006 201.016 14.479000000000005 C 201.713 14.029000000000005 201.751 13.025000000000004 202.66199999999998 12.748000000000005 C 202.79999999999998 13.422000000000004 203.498 13.034000000000004 203.47899999999998 14.004000000000005 z M 191.54100000000003 18.737000000000005 C 191.85800000000003 19.710000000000004 192.53100000000003 19.895000000000007 192.99300000000002 20.531000000000006 L 194.33100000000002 20.335000000000004 C 194.067 19.335000000000004 194.955 19.201000000000004 195.52400000000003 18.822000000000003 C 195.84900000000002 19.557000000000002 196.47300000000004 20.064000000000004 196.14100000000002 20.737000000000002 C 196.389 19.647000000000002 196.91600000000003 18.387 196.026 17.746000000000002 C 196.77200000000002 18.329 196.536 17.313000000000002 196.905 16.948 C 196.479 16.706 193.647 17.402 195.754 17.785 C 193.697 17.447 193.304 18.907 191.541 18.737000000000002 z M 39.991000000000014 118.25200000000001 C 41.20800000000001 117.68700000000001 41.064000000000014 117.83000000000001 42.04700000000001 117.52600000000001 C 42.16400000000001 118.01400000000001 40.33000000000001 119.436 39.99200000000001 118.25200000000001 z M 156.27 60.257 C 155.95000000000002 60.665 155.459 60.952 154.49 61.394999999999996 C 154.386 60.486 157.228 59.37499999999999 157.58700000000002 59.645999999999994 L 156.27 60.25599999999999 z M 140.174 74.29 C 137.638 75.20800000000001 136.264 76.727 133.826 77.71000000000001 C 134.998 76.33800000000001 138.16 73.70100000000001 140.174 74.29 z M 126.994 81.98400000000001 C 127.51 81.736 129.494 81.15700000000001 129.734 79.65700000000001 C 128.848 80.58400000000002 124.37700000000001 83.21200000000002 126.99400000000001 81.98400000000001 z M 11.13 136.057 C 8.683 136.35199999999998 3.9480000000000004 139.701 0.49400000000000155 139.504 C 4.2280000000000015 137.964 6.2970000000000015 137.036 10.077000000000002 135.064 C 9.727000000000002 134.399 9.008000000000003 135.416 8.507000000000001 135.441 C 20.018 129.27700000000002 27.583000000000002 125.68900000000001 37.067 120.509 C 37.693 119.911 36.967 119.288 37.112 118.944 L 41.89 116.319 C 42.47 117.973 43.384 117.453 44.17 117.771 C 44.906 117.641 43.237 116.461 43.974000000000004 116.333 C 43.582 115.702 43.04900000000001 116.01 42.508 116.365 C 48.322 112.26899999999999 57.382000000000005 107.208 65.83500000000001 101.97 C 65.652 101.298 67.263 101.388 66.441 100.444 C 70.912 100.614 72.724 96.73400000000001 76.549 95.375 C 75.525 94.701 77.45200000000001 95.046 77.59500000000001 93.593 C 78.15600000000002 93.253 77.99300000000001 93.658 78.15500000000002 94.055 C 90.63200000000002 86.26700000000001 103.83800000000002 78.31500000000001 111.91500000000002 71.887 C 114.00700000000002 71.444 116.01100000000002 70.454 118.03100000000002 68.244 C 122.04700000000003 66.144 126.74100000000001 64.294 129.32600000000002 60.197 C 129.66400000000002 60.674 129.42900000000003 60.858000000000004 129.169 61.029 C 131.209 60.503 134.304 58.815000000000005 136.328 57.178000000000004 C 136.821 56.892 135.666 56.545 135.606 55.646 C 136 55.239000000000004 137.297 55.313 137.077 54.58 C 138.603 55.113 135.775 55.25 136.72899999999998 56.242999999999995 C 138.59099999999998 56.245999999999995 139.819 54.672999999999995 140.90699999999998 53.15599999999999 C 148.397 51.06499999999999 155.677 44.81399999999999 161.02399999999997 42.43899999999999 C 161.12099999999998 41.42099999999999 159.73899999999998 42.24199999999999 160.41899999999998 41.58299999999999 C 160.86999999999998 41.53999999999999 160.77499999999998 41.15999999999999 160.65599999999998 40.76299999999999 C 161.62599999999998 40.645999999999994 160.91699999999997 41.75499999999999 161.73499999999999 42.15699999999999 C 165.915 39.39799999999999 168.071 38.77099999999999 170.696 35.99599999999999 C 170.546 37.386999999999986 171.126 35.87399999999999 171.646 36.39199999999999 C 172.29899999999998 35.18699999999999 172.446 33.627999999999986 174.07999999999998 33.07499999999999 C 174.486 34.13199999999999 172.736 34.246999999999986 172.40599999999998 35.42199999999999 C 174.09399999999997 34.81199999999999 175.69899999999998 34.29199999999999 177.21899999999997 33.40199999999999 C 178.75599999999997 32.55299999999999 180.20899999999997 31.339999999999986 181.61499999999995 29.279999999999987 C 180.95899999999995 27.977999999999987 180.23199999999994 30.203999999999986 179.82499999999996 28.76399999999999 C 181.21999999999997 27.04399999999999 182.41299999999995 26.06599999999999 184.31399999999996 26.35399999999999 C 184.34999999999997 26.72599999999999 183.87099999999995 26.70999999999999 183.99199999999996 27.143999999999988 C 183.90499999999997 26.55499999999999 186.66299999999995 25.87999999999999 186.15599999999995 24.10099999999999 C 187.64599999999996 24.71499999999999 188.51599999999996 23.855999999999987 188.28599999999994 21.770999999999987 C 189.08999999999995 22.010999999999985 190.13799999999995 21.686999999999987 190.67599999999993 22.529999999999987 C 190.89099999999993 22.157999999999987 190.41299999999993 21.752999999999986 191.19599999999994 21.335999999999988 C 189.81999999999994 20.110999999999986 189.20299999999995 20.83099999999999 187.16899999999995 21.719999999999988 C 186.85199999999995 22.47599999999999 187.47899999999996 22.271999999999988 187.60199999999995 23.35699999999999 C 186.42199999999994 23.399999999999988 187.07599999999994 22.22699999999999 185.87999999999994 22.06899999999999 C 183.96699999999993 22.962999999999987 184.20999999999995 24.000999999999987 182.14199999999994 24.51699999999999 C 182.00399999999993 22.01499999999999 184.58199999999994 22.12899999999999 185.96199999999993 21.34299999999999 C 186.20299999999995 20.64299999999999 187.40699999999993 19.28599999999999 187.33899999999994 19.216999999999988 C 187.54099999999994 18.421999999999986 187.97899999999993 19.41199999999999 187.85699999999994 20.12999999999999 C 190.18399999999994 19.03999999999999 189.84699999999995 17.492999999999988 189.88799999999995 16.07499999999999 C 190.73999999999995 16.242999999999988 191.01199999999994 16.864999999999988 190.90599999999995 17.92499999999999 C 192.83599999999996 16.53099999999999 196.43999999999994 16.66799999999999 196.15899999999993 12.86099999999999 C 196.47999999999993 13.01399999999999 196.60299999999992 13.55899999999999 197.10499999999993 13.33499999999999 C 197.20099999999994 11.57499999999999 199.32999999999993 13.20499999999999 199.38099999999994 10.77499999999999 C 200.71499999999995 11.977999999999989 202.24099999999996 9.99499999999999 203.33399999999995 9.30299999999999 L 203.64599999999996 10.96799999999999 C 205.20299999999995 10.311999999999989 206.32099999999997 9.257999999999988 207.71599999999995 8.49599999999999 C 206.57199999999995 7.08799999999999 205.27899999999994 9.80799999999999 203.73199999999994 9.91599999999999 C 205.54199999999994 8.14599999999999 207.40199999999993 6.85999999999999 209.35799999999995 5.677999999999989 C 211.41551417982708 4.449090705575887 213.50280618830953 3.270737677145063 215.61799999999994 2.1439999999999833 C 212.99099999999993 4.528999999999989 210.63299999999992 5.49899999999999 207.82299999999995 7.44799999999999 C 208.61899999999994 8.20299999999999 209.08999999999995 6.49099999999999 209.81399999999996 7.47499999999999 C 211.16799999999998 5.69399999999999 214.86199999999997 3.5569999999999897 216.16399999999996 4.13099999999999 C 216.84699999999995 2.1559999999999895 219.41999999999996 1.7209999999999894 221.74499999999995 0.05199999999998983 C 222.81499999999994 0.6079999999999899 220.98499999999996 0.9229999999999898 221.02999999999994 1.5039999999999898 C 221.23499999999996 2.61399999999999 222.27499999999995 0.32999999999998986 222.23499999999996 2.04399999999999 C 220.91899999999995 2.2869999999999897 221.02499999999995 2.64399999999999 220.45899999999995 1.57099999999999 C 220.60899999999995 3.0729999999999897 219.70299999999995 1.91199999999999 219.79299999999995 3.35399999999999 C 219.20699999999994 3.58399999999999 219.19899999999996 2.93699999999999 219.11299999999994 2.41099999999999 C 219.02299999999994 3.36599999999999 219.04099999999994 4.49299999999999 217.85499999999993 3.9279999999999897 C 218.16799999999992 5.871999999999989 220.57299999999992 4.278999999999989 220.64299999999994 3.2559999999999896 C 222.11499999999995 3.4899999999999896 223.83699999999993 3.2139999999999898 225.11799999999994 2.1129999999999898 C 225.74799999999993 2.1129999999999898 225.80299999999994 2.9159999999999897 225.83299999999994 3.75799999999999 C 225.92899999999995 2.78999999999999 228.23299999999995 4.52499999999999 227.68899999999994 5.65499999999999 C 229.58299999999994 6.765999999999989 229.91499999999994 6.124999999999989 231.44299999999993 7.068999999999989 C 230.64899999999992 8.038999999999989 231.7079999999999 7.470999999999989 230.98999999999992 8.80399999999999 C 231.2789999999999 9.74799999999999 232.15599999999992 9.856999999999989 232.73999999999992 10.37099999999999 C 233.02199999999993 11.84499999999999 231.93299999999994 11.82499999999999 231.78299999999993 12.82399999999999 C 232.95299999999992 12.76799999999999 231.48799999999994 14.38999999999999 233.19499999999994 13.73899999999999 C 232.82799999999995 14.60499999999999 232.02799999999993 15.15699999999999 233.28499999999994 15.43199999999999 C 233.54899999999995 16.68899999999999 232.30499999999995 16.24799999999999 232.31199999999993 17.20799999999999 C 232.41799999999992 18.397999999999993 233.15199999999993 18.66299999999999 233.25299999999993 19.853999999999992 C 233.40499999999992 20.661999999999992 232.81699999999992 20.62599999999999 233.08699999999993 21.56799999999999 C 230.90593447812793 23.859719744486284 228.494533933742 25.92060264442702 225.89099999999993 27.717999999999993 C 223.32199999999995 29.63099999999999 220.60399999999993 31.23799999999999 217.83099999999993 32.63799999999999 C 209.18799999999993 37.04399999999999 200.39999999999992 42.18599999999999 191.59099999999992 46.85799999999999 C 188.91899999999993 48.22099999999999 186.05799999999994 49.79199999999999 183.14999999999992 51.17699999999999 C 180.25999999999993 52.693999999999996 177.32999999999993 54.08299999999999 174.5709999999999 55.471999999999994 C 165.0949999999999 60.17999999999999 157.9689999999999 64.30499999999999 150.4559999999999 68.732 C 142.9479999999999 73.172 135.06599999999992 77.887 124.2829999999999 84.482 C 115.6259999999999 89.771 105.6729999999999 97.223 96.2299999999999 102.006 C 91.9059999999999 104.187 96.6139999999999 101.073 97.4319999999999 100.537 C 106.3599999999999 94.682 114.0469999999999 90.349 122.7149999999999 84.16000000000001 C 121.4229999999999 84.33000000000001 119.3269999999999 85.51400000000001 118.12399999999991 86.632 C 124.74999999999991 80.534 134.4399999999999 75.81400000000001 142.1579999999999 71.28200000000001 C 142.2699999999999 72.30900000000001 141.4659999999999 71.91400000000002 140.6779999999999 72.73400000000001 C 144.14499999999992 72.16600000000001 145.8239999999999 69.54100000000001 149.6239999999999 68.186 C 148.0169999999999 67.242 147.2969999999999 69.447 145.0439999999999 69.92800000000001 C 144.6789999999999 70.06800000000001 144.2649999999999 70.47200000000001 144.0119999999999 70.037 L 144.8989999999999 69.62100000000001 C 151.62999999999988 64.543 159.50499999999988 61.06700000000001 165.6789999999999 56.63100000000001 C 160.68899999999988 58.76200000000001 154.69499999999988 60.855000000000004 149.76599999999988 65.522 C 149.78099999999986 65.186 149.7919999999999 64.849 149.49199999999988 64.902 C 144.57099999999988 67.654 139.86199999999988 70.224 135.59499999999989 72.97200000000001 C 140.9889999999999 68.53500000000001 147.2619999999999 65.35900000000001 153.5309999999999 61.24900000000001 C 149.9289999999999 62.00600000000001 146.9619999999999 64.882 142.6609999999999 66.55700000000002 C 142.1139999999999 66.63700000000001 142.43799999999987 67.19500000000002 142.64099999999988 67.68700000000001 C 139.3159999999999 68.19300000000001 136.5659999999999 70.11300000000001 133.80699999999987 71.58300000000001 C 112.86299999999987 82.92300000000002 95.63599999999988 95.15500000000002 71.66699999999987 109.55000000000001 C 70.67499999999987 110.15 69.63799999999988 110.56700000000001 68.31399999999988 111.48500000000001 C 67.28399999999988 112.20500000000001 65.71699999999989 112.18200000000002 64.61699999999988 112.83100000000002 C 61.82299999999988 114.49100000000001 59.63699999999987 117.85700000000001 56.33799999999988 117.16700000000002 C 55.62799999999988 117.80000000000001 53.561999999999884 118.63300000000001 54.36199999999988 117.89700000000002 C 57.47999999999988 114.98700000000002 61.195999999999884 113.80900000000003 63.88799999999988 112.07700000000003 C 75.18799999999987 104.82100000000003 86.50499999999988 98.75100000000003 96.22499999999988 92.25100000000003 C 86.83499999999988 96.05400000000003 78.68699999999988 103.32400000000004 70.48699999999988 107.49600000000004 C 66.67899999999989 109.42600000000004 62.27299999999988 112.34700000000004 58.66399999999988 113.89400000000003 C 42.25599999999988 120.98400000000004 27.54199999999988 133.00500000000002 9.418999999999883 138.01000000000005 C 9.983999999999883 136.75800000000004 10.792999999999884 136.52200000000005 11.128999999999884 136.05700000000004 z M 192.203 16.701 C 191.80700000000002 16.931 191.498 15.104000000000001 192.236 15.391 C 192.233 15.656 192.051 15.773 192.10399999999998 16.082 C 193.261 16.323 192.22199999999998 14.756 193.128 14.785 C 192.73899999999998 16.212 193.73399999999998 14.548 194.588 14.645 C 193.81799999999998 15.738 192.908 16.148 192.203 16.701 z M 176.68 27.933 C 176.086 27.527 175.715 28.483 174.65900000000002 28.485 C 175.00500000000002 27.055 176.13100000000003 27.122 176.25400000000002 25.958 C 177.15400000000002 26.211 176.74 27.548 176.68 27.933 z M 172.737 29.568 C 172.547 29.684 172.452 29.511000000000003 172.36499999999998 29.325000000000003 C 172.15099999999998 29.912000000000003 172.64299999999997 31.571 171.60899999999998 30.919000000000004 C 171.314 30.110000000000003 172.545 30.294000000000004 171.74399999999997 29.151000000000003 C 172.20399999999998 28.905000000000005 172.54899999999998 28.997000000000003 172.73699999999997 29.568000000000005 z M 173.42 29.092000000000002 C 174.10399999999998 29.37 172.993 31.327 172.39 30.795 C 172.04399999999998 29.773000000000003 173.244 29.774 173.42 29.092000000000002 z M 169.79 31.694000000000003 L 169.44799999999998 30.698000000000004 C 169.93099999999998 30.620000000000005 170.62599999999998 29.932000000000002 170.70499999999998 31.018000000000004 C 170.23 31.128000000000004 170.302 31.606000000000005 169.791 31.694000000000003 z M 163.83499999999998 34.011 C 163.53799999999998 34.016000000000005 163.409 33.448 163.08499999999998 33.542 C 163.10899999999998 32.799 164.47499999999997 32.888 164.41099999999997 32.085 C 165.35999999999999 32.592 164.34599999999998 33.795 163.57399999999998 33.39 L 163.83499999999998 34.01 z M 165.37699999999998 33.799 C 165.945 33.896 167.98 33.063 167.69299999999998 31.746 C 168.37699999999998 32.382999999999996 168.474 32.201 169.16 31.616999999999997 C 169.67499999999998 32.507 168.861 32.507 169.09 33.207 C 167.36 32.629 166.507 35.847 165.377 33.799 z M 149.647 41.915 C 148.857 42.591 148.831 40.598 148.41299999999998 39.976 C 149.12499999999997 39.673 149.779 41.371 149.647 41.915 z M 141.225 47.663 C 141.35399999999998 47.01199999999999 141.87199999999999 46.568999999999996 142.643 46.26499999999999 C 142.829 47.12499999999999 141.664 47.87599999999999 141.225 47.663 z M 159.088 40.43599999999999 C 159.096 40.132999999999996 159.09799999999998 39.82599999999999 158.867 39.37799999999999 C 160.02599999999998 40.669999999999995 161.405 36.37499999999999 162.19199999999998 39.51499999999999 C 160.52999999999997 38.15899999999999 160.462 41.39999999999999 159.08799999999997 40.434999999999995 z M 138.744 49.53099999999999 C 138.896 48.71699999999999 140.089 48.21099999999999 140.653 47.14799999999999 C 140.53 47.68499999999999 140.268 48.14399999999999 140.54999999999998 48.89999999999999 C 139.50199999999998 48.91199999999999 139.59499999999997 49.98499999999999 138.74399999999997 49.529999999999994 z M 156.534 42.61099999999999 C 156.26399999999998 42.51799999999999 155.99599999999998 42.42899999999999 155.659 42.57699999999999 C 155.123 41.76199999999999 155.88899999999998 41.72999999999999 155.63299999999998 41.07899999999999 C 156.18599999999998 41.206999999999994 156.731 41.971 156.533 42.61099999999999 z M 157.807 40.98599999999999 C 158.124 41.67599999999999 156.98499999999999 41.47799999999999 156.696 41.79799999999999 C 156.555 41.133999999999986 156.903 40.76799999999999 156.546 39.97199999999999 C 157.42999999999998 39.87999999999999 157.44199999999998 40.871999999999986 157.80599999999998 40.98599999999999 z M 123.8 58.561 C 123.52199999999999 57.311 125.613 57.247 126.09 56.381 C 126.33800000000001 58.159 124.82300000000001 57.408 123.8 58.561 z M 125.77799999999999 63.015 C 125.79799999999999 62.685 125.62799999999999 62.262 125.31299999999999 61.768 L 126.64099999999999 61.208 C 127.28899999999999 62.699999999999996 125.97899999999998 61.951 125.77799999999999 63.015 z M 26.002999999999986 125.006 C 27.562999999999985 122.779 31.839999999999986 121.901 35.99499999999999 118.994 C 34.30299999999999 120.824 29.10499999999999 123.079 26.00299999999999 125.006 z M 126.276 78.48 C 126.854 79.839 124.43299999999999 79.72 123.752 80.458 C 122.377 80.327 126.21 79.30799999999999 126.276 78.48 z M 114.604 88.456 C 114.545 87.34700000000001 117.187 87.513 117.132 86.403 C 118.229 87.07000000000001 114.921 88.43900000000001 114.604 88.456 z M 113.974 89.797 C 112.641 87.98 110.60600000000001 92.085 113.581 89.61699999999999 C 113.694 89.79499999999999 113.813 89.96 113.974 89.797 z M 97.826 99.71 C 99.338 98.55999999999999 101.92299999999999 95.55 104.17399999999999 96.28999999999999 C 102.00299999999999 97.32 99.318 99.08399999999999 97.826 99.71 z M 66.15299999999999 118.113 C 67.83399999999999 116.833 70.573 115.208 72.35399999999998 114.319 C 72.25599999999999 115.274 70.25299999999999 116.299 68.55899999999998 117.229 C 67.28899999999999 117.93299999999999 64.39599999999999 119.504 66.15299999999998 118.113 z" stroke-linecap="round" />
</g>
<g transform="matrix(1 0 0 1 498.73 462.93)" style="" id="af0c3c70-ed21-460e-a50a-3f46a6f580fa"  >
		<text xml:space="preserve" font-family="Lato" font-size="40" font-style="normal" font-weight="400" style="stroke: none; stroke-width: 1; stroke-dasharray: none; stroke-linecap: butt; stroke-dashoffset: 0; stroke-linejoin: miter; stroke-miterlimit: 4; fill: rgb(0,0,0); fill-rule: nonzero; opacity: 1; white-space: pre;" ><tspan x="-103.74" y="12.57" style="white-space: pre; ">بَارِزين الأسرة </tspan></text>
</g>
</svg>